<?xml version="1.0" encoding="UTF-8"?>
<svg width="24px" height="24px" viewBox="0 0 24 24" version="1.1" xmlns="http://www.w3.org/2000/svg" xmlns:xlink="http://www.w3.org/1999/xlink">
    <title>Icon/Arrow right</title>
    <g id="Icon/Arrow-right" stroke="none" stroke-width="1" fill="none" fill-rule="evenodd">
        <path d="M18.5052944,11.0925 L7.39443286,11.0925 L12.2485962,6.2125 C12.6365314,5.8225 12.6365314,5.1825 12.2485962,4.7925 C11.860661,4.4025 11.2339965,4.4025 10.8460613,4.7925 L4.29095139,11.3825 C3.9030162,11.7725 3.9030162,12.4025 4.29095139,12.7925 L10.8460613,19.3825 C11.2339965,19.7725 11.860661,19.7725 12.2485962,19.3825 C12.6365314,18.9925 12.6365314,18.3625 12.2485962,17.9725 L7.39443286,13.0925 L18.5052944,13.0925 C19.0523825,13.0925 19.5,12.6425 19.5,12.0925 C19.5,11.5425 19.0523825,11.0925 18.5052944,11.0925 Z" id="Path" fill="#F92822" transform="translate(11.750000, 12.087500) scale(-1, 1) translate(-11.750000, -12.087500) "></path>
    </g>
</svg>