<?xml version="1.0" encoding="UTF-8"?>
<svg width="24px" height="24px" viewBox="0 0 24 24" version="1.1" xmlns="http://www.w3.org/2000/svg" xmlns:xlink="http://www.w3.org/1999/xlink">
    <title>Icon/Design</title>
    <g id="Icon/Design" stroke="none" stroke-width="1" fill="none" fill-rule="evenodd">
        <path d="M17.5742902,3.54847886 L17.6059308,3.54956147 L17.6182149,3.55030325 C17.643475,3.55190716 17.6686514,3.5544646 17.6936866,3.55796443 L17.7220444,3.56234375 C17.7251425,3.56286685 17.7282348,3.56340367 17.7313213,3.56395415 L17.7700129,3.57143741 L17.7960708,3.57750002 C17.8173242,3.58308863 17.8302717,3.58667737 17.8430962,3.59050954 L17.8840149,3.60358055 C17.8883241,3.60507846 17.8926199,3.60660501 17.8969021,3.60815999 C17.9195271,3.61662421 17.9343157,3.62252196 17.9489074,3.62874906 L17.9869359,3.64603986 L18.0654134,3.68783913 L18.1027128,3.71105868 L18.1471852,3.74183929 L18.161,3.752 L18.2202269,3.80093009 C18.2437575,3.82188508 18.2664378,3.84409159 18.2881666,3.86753 L18.3047591,3.88599652 C18.3078851,3.88942622 18.3106565,3.89261178 18.3134107,3.89581847 L18.3435277,3.93266591 L18.377297,3.97852579 L18.3842577,3.9886972 L22.8287021,10.5693424 C22.8351051,10.5788229 22.8413237,10.5883737 22.8473589,10.5979907 C22.855915,10.6112243 22.8640924,10.6249672 22.8719115,10.6388564 L22.8907981,10.6743577 L22.8983588,10.6892576 C22.8993161,10.6912093 22.9002672,10.6931647 22.9012121,10.6951236 C22.9035206,10.700131 22.9058737,10.7051076 22.9081825,10.7100965 C22.9135013,10.7213274 22.9186437,10.7330586 22.9235498,10.7448644 C22.9339805,10.7700526 22.9433506,10.7954101 22.9516409,10.8209789 C22.9553971,10.8327512 22.958956,10.8445193 22.9622933,10.8563365 C22.9693123,10.8807637 22.975309,10.9055178 22.980337,10.9303826 L22.9842617,10.9516819 L22.9878069,10.9728624 C22.9915992,10.9958659 22.9944373,11.019251 22.996445,11.0426603 C22.9975686,11.0574861 22.9985242,11.0724807 22.9991437,11.0874861 C22.9998112,11.1007375 23.0000999,11.1137548 23.0000999,11.126763 C23.0000999,11.1512252 22.9992086,11.1759345 22.9974495,11.2005899 L22.9962253,11.2161682 L22.9947428,11.2316699 C22.9919816,11.2585896 22.9881483,11.2853018 22.9832357,11.3118521 L22.981,11.319 L22.964488,11.392983 C22.9575396,11.4185685 22.9498337,11.4429844 22.9411949,11.4670964 C22.9292792,11.5008659 22.9151924,11.5343723 22.8992052,11.5671819 C22.8878165,11.5903688 22.8755939,11.6132195 22.862458,11.6356192 C22.8526023,11.6524164 22.8420235,11.6692452 22.830896,11.6858134 C22.8205198,11.7014147 22.8099128,11.7163355 22.798867,11.7309924 C22.7948618,11.7360665 22.790613,11.7415759 22.7862989,11.7470505 L22.7599991,11.7793446 C22.7467646,11.7947933 22.7330043,11.8098944 22.7187234,11.8246204 L22.7071068,11.836139 C22.7039541,11.8392917 22.7007804,11.8424235 22.6975861,11.845534 L12.7247139,21.6894454 C12.7197661,21.6946464 12.7147675,21.6997879 12.7097191,21.7048694 L12.6995299,21.7149838 C12.6932708,21.7207938 12.6839089,21.7296881 12.6744208,21.7383662 C12.653324,21.7576797 12.6316316,21.7758866 12.60938,21.7930297 C12.6017406,21.7989019 12.5935796,21.8049994 12.5853487,21.8109559 L12.5494211,21.8357218 L12.497,21.867 L12.4934337,21.8698614 L12.4820293,21.8762137 C12.4677408,21.8839476 12.4612539,21.8873442 12.4547322,21.8906687 L12.4373239,21.8996066 L12.4105574,21.9118348 C12.4053489,21.9144568 12.4036546,21.9152053 12.4019587,21.915949 L12.3817509,21.9245505 L12.3518922,21.9360679 L12.3263129,21.945496 C12.3146346,21.9495165 12.3029334,21.953303 12.2911792,21.9568685 C12.2788723,21.9606183 12.2662327,21.9641865 12.2534578,21.9675198 L12.2366913,21.9717404 C12.2165957,21.9766047 12.1962672,21.9808712 12.1758467,21.9845005 C12.1539735,21.9883823 12.1327403,21.9914387 12.1114463,21.9938122 L12.0866346,21.996262 L12.0765538,21.9973006 C12.0689006,21.9976424 12.0652084,21.9978892 12.0615151,21.9981155 C12.0412216,21.9993634 12.0208673,22 12.0005136,22 L11.9688154,21.9997397 L11.9384541,21.9981185 L11.9209018,21.9971401 L11.925,21.997 L11.9133178,21.9962565 C11.9049407,21.995531 11.8965673,21.9947005 11.8882036,21.9937648 C11.8672597,21.9914387 11.8460265,21.9883823 11.8248896,21.9846426 C11.8037328,21.9808712 11.7834043,21.9766047 11.7631997,21.9717013 L11.7460092,21.9672412 L11.7356858,21.9646198 C11.7265239,21.9621197 11.7173768,21.9594816 11.7082614,21.9567104 L11.687,21.949 L11.5894426,21.9118348 C11.6079141,21.9201516 11.6265047,21.9278615 11.6460344,21.9352467 L11.6389844,21.9328245 C11.6250062,21.9274255 11.6114141,21.9218199 11.5979253,21.9159016 L11.5679041,21.9018518 L11.563,21.899 L11.568,21.901 L11.555,21.895 L11.5340289,21.8851072 C11.513018,21.8740378 11.4923116,21.8621645 11.4719593,21.8494895 C11.4606439,21.8423149 11.4496985,21.8352203 11.4388866,21.8279075 L11.4149088,21.8111618 L11.375,21.78 L11.369235,21.7761374 C11.3645996,21.7724731 11.3629968,21.7711541 11.3613979,21.7698297 L11.3546598,21.7639576 L11.3355261,21.7476691 C11.3254276,21.7386996 11.3155357,21.7295446 11.3058533,21.720212 L11.2974996,21.7116834 C11.2852325,21.6997879 11.2802339,21.6946464 11.2752861,21.6894454 L1.30241392,11.845534 C1.29921955,11.8424235 1.29604591,11.8392917 1.29289322,11.836139 L1.28127658,11.8246204 L1.26024633,11.8022535 L1.24687027,11.7869726 L1.24000092,11.7793446 L1.22643759,11.762799 C1.22234816,11.7578134 1.21830599,11.7527876 1.21431175,11.7477222 L1.20095466,11.7305234 C1.19008721,11.7163355 1.17948019,11.7014147 1.16931586,11.6862506 C1.15797655,11.6692452 1.14739766,11.6524164 1.13736754,11.6353527 C1.12593964,11.615846 1.11514658,11.5958846 1.1050404,11.5755768 C1.10189238,11.5693807 1.09866344,11.5627458 1.09550623,11.5560704 C1.09298411,11.550524 1.09053869,11.5452077 1.08814102,11.5398726 L1.07273638,11.5041477 L1.06386483,11.4814421 L1.05852324,11.4666438 L1.05553453,11.4584712 L1.03496126,11.3917175 C1.02847284,11.3682111 1.02289675,11.3442275 1.0182002,11.3199304 L1.00881809,11.2618978 C1.00610589,11.2414053 1.00400469,11.2210611 1.00252574,11.2006576 L1.00062826,11.164548 C0.999631649,11.1391205 0.999676439,11.1134224 1.00071463,11.0877188 C1.00147578,11.0724807 1.00243143,11.0574861 1.00372331,11.0425148 L1.0072115,11.007552 L1.01207818,10.9725503 C1.01441327,10.9587426 1.01693671,10.9446608 1.0197635,10.9306276 C1.02469101,10.9055178 1.03068772,10.8807637 1.0376639,10.8561759 C1.04104397,10.8445193 1.04460289,10.8327512 1.04838349,10.8210387 C1.05653903,10.7957505 1.06577023,10.7707277 1.07606448,10.7459718 C1.08092717,10.7340568 1.08605079,10.7223333 1.09141026,10.7106911 L1.09737528,10.6980646 C1.10322505,10.6858348 1.10931606,10.6737424 1.11564213,10.6617936 L1.12814805,10.6391146 L1.142,10.614 L1.15198312,10.5986575 L1.17129787,10.5693424 L5.61574231,3.9886972 L5.622,3.978 L5.628,3.97 L5.654,3.935 L5.64,3.953 L5.65393904,3.93587301 C5.66714239,3.91879853 5.68080698,3.90225955 5.69490313,3.88626183 L5.70352815,3.87671433 L5.72782748,3.85091934 L5.737,3.841 L5.76114712,3.81797445 C5.77802687,3.80213722 5.79539353,3.78696406 5.8131982,3.77246577 L5.82376478,3.76427188 C5.83296667,3.75668477 5.84283164,3.74916172 5.85281484,3.74183929 L5.86124087,3.73578389 C5.90788623,3.70225396 5.95771227,3.67255887 6.01033405,3.64723995 C6.02445729,3.64057201 6.03801097,3.63443975 6.05168167,3.62861722 C6.06471897,3.62293393 6.07851702,3.617406 6.09248053,3.61217398 C6.11455873,3.60403126 6.13601346,3.59682672 6.15767287,3.59035697 L6.18971543,3.58112105 C6.19308998,3.58023477 6.19647149,3.57936567 6.19985988,3.57851387 L6.205,3.577 L6.21515362,3.57479781 L6.23206923,3.57119727 L6.23769514,3.56980985 L6.258,3.566 L6.267,3.564 L6.264,3.565 L6.2682011,3.56403983 C6.28759711,3.56071583 6.29722962,3.55923175 6.30685099,3.55788994 C6.33134862,3.5544646 6.35652498,3.55190716 6.38178515,3.55030325 L6.42537946,3.54843435 L11.971,3.548 L17.5742902,3.54847886 Z M14.897,12.129 L9.102,12.129 L12,18.564 L14.897,12.129 Z M19.562,12.129 L17.09,12.129 L15.112,16.523 L19.562,12.129 Z M6.909,12.129 L4.437,12.129 L8.887,16.522 L6.909,12.129 Z M18.125,7.179 L17.627,10.129 L20.118,10.129 L18.125,7.179 Z M5.874,7.179 L3.881,10.129 L6.372,10.129 L5.874,7.179 Z M12,6.335 L9.437,10.129 L14.562,10.129 L12,6.335 Z M10.117,5.548 L7.627,5.548 L8.125,8.498 L10.117,5.548 Z M16.372,5.548 L13.882,5.548 L15.874,8.498 L16.372,5.548 Z" id="Shape-Copy" fill="#00327F"></path>
    </g>
</svg>