<?xml version="1.0" encoding="UTF-8"?>
<svg width="24px" height="24px" viewBox="0 0 24 24" version="1.1" xmlns="http://www.w3.org/2000/svg" xmlns:xlink="http://www.w3.org/1999/xlink">
    <title>Icon/Groep</title>
    <g id="Icon/Groep" stroke="none" stroke-width="1" fill="none" fill-rule="evenodd">
        <path d="M8,13 C12.418278,13 16,16.581722 16,21 C13.3333333,21.8497383 10.6666667,22.2746075 8,22.2746075 C5.33333333,22.2746075 2.66666667,21.8497383 1.0125234e-13,21 C1.0125234e-13,16.581722 3.581722,13 8,13 Z M8,15 C5.18907366,15 2.82961493,16.9329627 2.17833469,19.5421771 C4.12354995,20.0310153 6.06303936,20.2746075 8,20.2746075 C9.93696064,20.2746075 11.87645,20.0310153 13.8216653,19.5421771 C13.1703851,16.9329627 10.8109263,15 8,15 Z M18,13 C21.3137085,13 24,15.7033008 24,19.0379914 C22,19.6793305 20,20 18,20 L17.9505766,19.9995155 C17.8817892,19.3070358 17.7423601,18.6353395 17.5395979,17.9917352 C17.6925852,17.9978794 17.8463079,18 18,18 C19.2415388,18 20.485074,17.8616164 21.7328211,17.5836946 C21.1542068,16.0710516 19.699516,15 18,15 C17.3847123,15 16.801514,15.1403836 16.2803596,15.3912814 C15.896999,14.8264442 15.4564273,14.3018395 14.9674461,13.826798 C15.8569558,13.3014179 16.8934994,13 18,13 Z M18,4 C20.209139,4 22,5.790861 22,8 C22,10.209139 20.209139,12 18,12 C16.4335993,12 15.0774916,11.0996289 14.42098,9.78819007 C14.7941039,8.93373505 15,7.99091233 15,7 C15,6.49936523 14.9474443,6.0110055 14.8475491,5.54013703 C15.577882,4.60256474 16.7185727,4 18,4 Z M8,2 C10.7614237,2 13,4.23857625 13,7 C13,9.76142375 10.7614237,12 8,12 C5.23857625,12 3,9.76142375 3,7 C3,4.23857625 5.23857625,2 8,2 Z M18,6 C16.8954305,6 16,6.8954305 16,8 C16,9.1045695 16.8954305,10 18,10 C19.1045695,10 20,9.1045695 20,8 C20,6.8954305 19.1045695,6 18,6 Z M8,4 C6.34314575,4 5,5.34314575 5,7 C5,8.65685425 6.34314575,10 8,10 C9.65685425,10 11,8.65685425 11,7 C11,5.34314575 9.65685425,4 8,4 Z" id="Combined-Shape" fill="#18456D"></path>
    </g>
</svg>