<?xml version="1.0" encoding="UTF-8"?>
<svg width="24px" height="24px" viewBox="0 0 24 24" version="1.1" xmlns="http://www.w3.org/2000/svg" xmlns:xlink="http://www.w3.org/1999/xlink">
    <title>Icon/Kleding alt</title>
    <g id="Icon/Kleding-alt" stroke="none" stroke-width="1" fill="none" fill-rule="evenodd">
        <path d="M16.5,19.5 L16.5000251,11 C16.5000251,10.256618 17.2823376,9.77312226 17.9472387,10.1055728 L19.1189712,10.6914391 L21.0869399,7.41149138 L17.2639571,5.5 L15.862075,5.5 L13.1402095,7.76822128 C13.0930503,7.80752055 13.0433426,7.84174342 12.9917499,7.87095021 C12.9971932,7.91319769 13,7.95627106 13,8 L13,11.5 C13,12.0522847 12.5522847,12.5 12,12.5 C11.4477153,12.5 11,12.0522847 11,11.5 L11,8 C11,7.95622397 11.0028129,7.91310491 11.0082677,7.87081372 C10.9567612,7.84163681 10.9071348,7.80745935 10.8600491,7.76822128 L8.13818361,5.5 L6.73630152,5.5 L2.91331875,7.41149138 L4.88128738,10.6914391 L6.05301995,10.1055728 C6.71792104,9.77312226 7.50023354,10.256618 7.50023354,11 L7.50023354,20.2696728 C9.11963112,20.7578355 10.6197195,21 12.0002335,21 C13.3806813,21 14.8806917,20.7578588 16.5,20.2697432 L16.5,19.5 Z M18.5002335,20.9768986 C18.5102111,21.4031325 18.2446858,21.8044806 17.8193803,21.9477053 C15.7417927,22.6473482 13.8022076,23 12.0002335,23 C10.1982595,23 8.25867435,22.6473482 6.18108683,21.9477053 C5.7742392,21.8106964 5.50023354,21.4292976 5.50023354,21 L5.50023354,12.618034 L4.94744714,12.8944272 C4.48007646,13.1281125 3.91158333,12.9625669 3.64274062,12.5144958 L0.642740619,7.51449576 C0.343041675,7.01499752 0.532007129,6.36607922 1.05301995,6.10557281 L6.05301995,3.60557281 C6.19187538,3.53614509 6.34498845,3.5 6.50023354,3.5 L6.63393528,3.5 C6.69447651,3.39504005 6.7752481,3.29939297 6.87557532,3.21913119 L9.37557532,1.21913119 C9.55288837,1.07728075 9.77319887,1 10.0002704,1 L14.0002335,1 C14.227305,1 14.4476155,1.07728075 14.6249286,1.21913119 L17.1249286,3.21913119 C17.2252558,3.29939297 17.3060274,3.39504005 17.3665686,3.5 L17.5000251,3.5 C17.6552702,3.5 17.8083832,3.53614509 17.9472387,3.60557281 L22.9472387,6.10557281 C23.4682515,6.36607922 23.6572169,7.01499752 23.357518,7.51449576 L20.357518,12.5144958 C20.0886753,12.9625669 19.5201822,13.1281125 19.0528115,12.8944272 L18.5000251,12.618034 L18.5000251,20 L18.5002335,20.9768986 Z M13.6494525,3 L10.3510514,3 L9.28535349,3.85255835 L12.0001293,6.11487152 L14.7150253,3.85245823 L13.6494525,3 Z M11.9787879,15.5 C11.4382183,15.5 11,15.0522847 11,14.5 C11,13.9477153 11.4382183,13.5 11.9787879,13.5 C12.5193575,13.5 12.9575758,13.9477153 12.9575758,14.5 C12.9575758,15.0522847 12.5193575,15.5 11.9787879,15.5 Z" id="Shape" fill="#18456D"></path>
    </g>
</svg>