<?xml version="1.0" encoding="UTF-8"?>
<svg width="24px" height="24px" viewBox="0 0 24 24" version="1.1" xmlns="http://www.w3.org/2000/svg" xmlns:xlink="http://www.w3.org/1999/xlink">
    <title>Icon/Kleding</title>
    <g id="Icon/Kleding" stroke="none" stroke-width="1" fill="none" fill-rule="evenodd">
        <path d="M12,0 C18.627417,0 24,5.372583 24,12 C24,18.627417 18.627417,24 12,24 C5.372583,24 0,18.627417 0,12 C0,5.372583 5.372583,0 12,0 Z M9.08596098,9 L8.73624252,9 L5.75260673,10.4918179 L6.54648,12.6088133 L7.55296095,12.1055728 C8.21786204,11.7731223 9.00017454,12.256618 9.00017454,13 L9.00017454,13 L9.00011922,21.5422352 C9.9471258,21.8396596 10.9548381,22 12,22 C13.0455304,22 14.0535849,21.8395465 15.0008825,21.5419205 L15,13 C15,12.256618 15.7823125,11.7731223 16.4472136,12.1055728 L17.4536945,12.6088133 L18.2475678,10.4918179 L15.263932,9 L14.9142136,9 L13,10.914 L13,13 C13,13.5522847 12.5522847,14 12,14 C11.4477153,14 11,13.5522847 11,13 L11,10.914 L9.08596098,9 Z M12,2 C6.4771525,2 2,6.4771525 2,12 C2,15.7014171 4.01099892,18.9331402 7.00001287,20.6621855 L7.00017454,14.618034 L6.44738814,14.8944272 C5.9163658,15.1599384 5.27230772,14.907023 5.06384537,14.3511234 L5.06384537,14.3511234 L3.56384537,10.3511234 C3.38415493,9.87194893 3.59523014,9.33443821 4.05296095,9.10557281 L4.05296095,9.10557281 L7.843,7.21 L9.20005885,5.4 C9.36530644,5.17966989 9.61288469,5.03866747 9.88306006,5.00685953 L10.0000589,5 L14,5 C14.3147573,5 14.6111456,5.14819416 14.8,5.4 L16.158,7.21 L19.9472136,9.10557281 C20.4049444,9.33443821 20.6160196,9.87194893 20.4363292,10.3511234 L18.9363292,14.3511234 C18.7278668,14.907023 18.0838087,15.1599384 17.5527864,14.8944272 L17,14.618034 L17.0009861,20.6616075 C19.9894491,18.9324201 22,15.7010047 22,12 C22,6.4771525 17.5228475,2 12,2 Z M12,15 C12.5522847,15 13,15.4477153 13,16 C13,16.5522847 12.5522847,17 12,17 C11.4477153,17 11,16.5522847 11,16 C11,15.4477153 11.4477153,15 12,15 Z M13.5,7 L10.5000589,7 L10.249,7.334 L11.9188763,9.00324298 C11.9456341,9.00109482 11.9726892,9 12,9 L12.081,9.004 L13.75,7.334 L13.5,7 Z" id="Icon" fill="#18456D"></path>
    </g>
</svg>