<?xml version="1.0" encoding="UTF-8"?>
<svg width="24px" height="24px" viewBox="0 0 24 24" version="1.1" xmlns="http://www.w3.org/2000/svg" xmlns:xlink="http://www.w3.org/1999/xlink">
    <title>Icon/Location</title>
    <g id="Icon/Location" stroke="none" stroke-width="1" fill="none" fill-rule="evenodd">
        <path d="M7.5,13 L8,15 L6.65810002,15 L4.51510002,20 L19.4821,20 L17.3391,15 L16,15 L16.5,13 L17.3391,13 C18.1411,13 18.8631,13.476 19.1781,14.213 L21.3201,19.212 C21.5861,19.829 21.5241,20.536 21.1521,21.1 C20.7791,21.665 20.1551,22 19.4821,22 L4.51510002,22 C3.84210002,22 3.21910002,21.665 2.84610002,21.102 C2.47410002,20.536 2.41110002,19.829 2.67810002,19.21 L4.82010002,14.212 C5.13410002,13.476 5.85610002,13 6.65810002,13 L7.5,13 Z M11.9987,2 C14.7557,2 16.9987,4.243 16.9987,7 C16.9987,8.07395349 16.2618693,10.293391 15.4048077,12.511445 L15.1446988,13.1756729 C14.2260099,15.4922969 13.2427465,17.6809535 12.9087,18.414 C12.7467,18.771 12.3917,19 11.9987,19 C11.6067,19 11.2507,18.771 11.0887,18.414 C10.4057,16.913 6.99870002,9.309 6.99870002,7 C6.99870002,4.243 9.24170002,2 11.9987,2 Z M11.9987,4 C10.3447,4 8.99870002,5.346 8.99870002,7 C8.99870002,8.183 10.5917,12.261 11.9987,15.527 C12.2547,14.9331818 12.5167827,14.3124876 12.7742733,13.6872164 L13.0298378,13.0612454 C14.0850177,10.4535583 14.9987,7.89545455 14.9987,7 C14.9987,5.346 13.6527,4 11.9987,4 Z M11.9987,5.5 C12.8277,5.5 13.4987,6.171 13.4987,7 C13.4987,7.829 12.8277,8.5 11.9987,8.5 C11.1697,8.5 10.4987,7.829 10.4987,7 C10.4987,6.171 11.1697,5.5 11.9987,5.5 Z" id="Combined-Shape" fill="#18456D"></path>
    </g>
</svg>