<?xml version="1.0" encoding="UTF-8"?>
<svg width="24px" height="24px" viewBox="0 0 24 24" version="1.1" xmlns="http://www.w3.org/2000/svg" xmlns:xlink="http://www.w3.org/1999/xlink">
    <title>Icon/MJ</title>
    <g id="Icon/MJ" stroke="none" stroke-width="1" fill="none" fill-rule="evenodd">
        <path d="M12,3.55271368e-15 C18.627417,3.55271368e-15 24,5.372583 24,12 C24,18.627417 18.627417,24 12,24 C5.372583,24 1.42108547e-14,18.627417 1.42108547e-14,12 C1.42108547e-14,5.372583 5.372583,3.55271368e-15 12,3.55271368e-15 Z M12,2 C6.4771525,2 2,6.4771525 2,12 C2,17.5228475 6.4771525,22 12,22 C17.5228475,22 22,17.5228475 22,12 C22,6.4771525 17.5228475,2 12,2 Z M16.2579242,5.21247059 L16.4157673,5.85482353 L18.8366693,15.8088235 C18.8967869,16.0341961 18.9291791,16.2653333 18.9291791,16.5008627 C18.9291791,17.1311373 18.7051791,17.74 18.3178457,18.1707059 C17.9549438,18.5714902 17.4819634,18.7927451 16.9831791,18.7927451 L16.9831791,18.7927451 L16.9417281,18.7927451 L16.898081,18.7916471 L16.898081,18.7927451 L7.02945357,18.7927451 L7.02945357,18.7916471 L6.985532,18.7927451 L6.94298298,18.7927451 C6.44557122,18.7927451 5.9720418,18.5714902 5.61161043,18.1707059 C5.22180651,17.74 5,17.1311373 5,16.5008627 C4.9996787,16.2679097 5.02976288,16.0359108 5.08949278,15.8107451 C5.08949278,15.8099216 5.15647318,15.5398039 5.18172808,15.4409804 L5.18172808,15.4409804 L6.80847318,15.4409804 L6.69921827,15.8887059 L6.6580418,16.0517647 C6.65557122,16.060549 6.6522771,16.0715294 6.65145357,16.0814118 L6.65145357,16.0814118 C6.63415945,16.1552549 6.62592416,16.2219608 6.62592416,16.283451 C6.62592416,16.4890588 6.69647318,16.6803922 6.82823788,16.8250588 C6.95835553,16.970549 7.13129671,17.0501569 7.31521827,17.0501569 L7.31521827,17.0501569 L16.6150614,17.0501569 C16.799532,17.0501569 16.9719242,16.970549 17.1031398,16.8253333 C17.2338065,16.6803922 17.3054536,16.4890588 17.3054536,16.283451 C17.3054536,16.2441961 17.3007869,16.2024706 17.2950222,16.1563529 L17.2950222,16.1563529 L17.2936496,16.1549804 L17.2936496,16.1514118 L17.2587869,16.0119608 L17.2285908,15.8887059 L16.8039242,14.1631373 L15.0632575,6.99211765 L15.0533751,6.95643137 L11.353532,6.95643137 L10.8846693,5.21247059 L16.2579242,5.21247059 Z M13.7069045,14.280902 C13.7069045,14.280902 13.1617281,15.1922745 13.0829438,15.3207451 L13.0829438,15.3207451 L16.3034928,15.3207451 L16.308983,15.4157255 L10.2511006,16.285098 C10.2511006,16.285098 10.7463163,15.5870196 10.8369045,15.4601961 L10.8369045,15.4601961 L7.23945357,15.4601961 L7.23368886,15.3627451 L13.60863,14.2968235 Z M9.32682612,5.21247059 L9.47423788,5.87458824 L10.7391791,11.4883137 L10.7776104,11.6631765 L10.8231791,11.4918824 L11.4026693,9.25462745 L11.56463,8.6232549 L13.9591791,8.6232549 L14.1183947,9.26423529 C14.1183947,9.26423529 14.3735322,10.3022643 14.6379537,11.3784223 L14.7436347,11.8085489 C14.9536559,12.6633887 15.1486395,13.4573063 15.2027085,13.6783529 L15.2027085,13.6783529 L13.5803555,13.6783529 L12.7969045,10.5083137 L12.7551791,10.3414118 L12.711532,10.5083137 L12.054081,13.0469804 L11.8921202,13.6783529 L9.61286533,13.6783529 L8.50659082,8.76709804 L8.46788494,8.58701961 L8.42231631,8.766 L7.21859082,13.6602353 L5.59074769,13.6602353 L7.51231631,5.85482353 L7.6687869,5.21247059 L9.32682612,5.21247059 Z" id="Mask" fill="#18456D"></path>
    </g>
</svg>