<?xml version="1.0" encoding="UTF-8"?>
<svg width="24px" height="24px" viewBox="0 0 24 24" version="1.1" xmlns="http://www.w3.org/2000/svg" xmlns:xlink="http://www.w3.org/1999/xlink">
    <title>Icon/Personeelshandboek Alt</title>
    <g id="Icon/Personeelshandboek-Alt" stroke="none" stroke-width="1" fill="none" fill-rule="evenodd">
        <path d="M14.5,1 C14.7652165,1 15.0195704,1.10535684 15.2071068,1.29289322 L18.7071068,4.79289322 C18.8946432,4.9804296 19,5.23478351 19,5.5 L19,22 C19,22.5522847 18.5522847,23 18,23 L6,23 C5.44771525,23 5,22.5522847 5,22 L5,2 C5,1.44771525 5.44771525,1 6,1 L14.5,1 Z M12.997,3 L7,3 L7,21 L17,21 L17,7.002 L13.9979952,7.00200475 C13.4457105,7.00200475 12.9979952,6.5542895 12.9979952,6.00200475 L12.997,3 Z M13.5,16 C14.0522847,16 14.5,16.4477153 14.5,17 C14.5,17.5522847 14.0522847,18 13.5,18 L9.5,18 C8.94771525,18 8.5,17.5522847 8.5,17 C8.5,16.4477153 8.94771525,16 9.5,16 L13.5,16 Z M14.5,13 C15.0522847,13 15.5,13.4477153 15.5,14 C15.5,14.5522847 15.0522847,15 14.5,15 L9.5,15 C8.94771525,15 8.5,14.5522847 8.5,14 C8.5,13.4477153 8.94771525,13 9.5,13 L14.5,13 Z M13.5,10 C14.0522847,10 14.5,10.4477153 14.5,11 C14.5,11.5522847 14.0522847,12 13.5,12 L9.5,12 C8.94771525,12 8.5,11.5522847 8.5,11 C8.5,10.4477153 8.94771525,10 9.5,10 L13.5,10 Z" id="Combined-Shape" fill="#18456D"></path>
    </g>
</svg>