<?xml version="1.0" encoding="UTF-8"?>
<svg width="24px" height="24px" viewBox="0 0 24 24" version="1.1" xmlns="http://www.w3.org/2000/svg" xmlns:xlink="http://www.w3.org/1999/xlink">
    <title>Icon/Planning</title>
    <g id="Icon/Planning" stroke="none" stroke-width="1" fill="none" fill-rule="evenodd">
        <path d="M16,7 L19,7 C19.5522847,7 20,7.44771525 20,8 L20,18.0009749 C21.255821,16.3294868 22,14.2516496 22,12 C22,6.4771525 17.5228475,2 12,2 C6.4771525,2 2,6.4771525 2,12 C2,14.2516496 2.74417897,16.3294868 4,18.0009749 L4,8 C4,7.44771525 4.44771525,7 5,7 L6,7 C6.55228475,7 7,7.44771525 7,8 C7,8.55228475 6.55228475,9 6,9 L6,20.0007324 C7.67132106,21.2561104 9.74878816,22 12,22 C14.251212,22 16.3286792,21.2561103 18,20.0007322 L18,9 L16,9 L16,10 C16,10.5522847 15.5522847,11 15,11 C14.4477153,11 14,10.5522847 14,10 L14,6 C14,5.44771525 14.4477153,5 15,5 C15.5522847,5 16,5.44771525 16,6 L16,7 Z M10,7 L12,7 C12.5522847,7 13,7.44771525 13,8 C13,8.55228475 12.5522847,9 12,9 L10,9 L10,10 C10,10.5522847 9.55228475,11 9,11 C8.44771525,11 8,10.5522847 8,10 L8,6 C8,5.44771525 8.44771525,5 9,5 C9.55228475,5 10,5.44771525 10,6 L10,7 Z M12,24 C5.372583,24 0,18.627417 0,12 C0,5.372583 5.372583,0 12,0 C18.627417,0 24,5.372583 24,12 C24,18.627417 18.627417,24 12,24 Z M9,12 L10,12 C10.5522847,12 11,12.4477153 11,13 L11,14 C11,14.5522847 10.5522847,15 10,15 L9,15 C8.44771525,15 8,14.5522847 8,14 L8,13 C8,12.4477153 8.44771525,12 9,12 Z M9,16 L10,16 C10.5522847,16 11,16.4477153 11,17 L11,18 C11,18.5522847 10.5522847,19 10,19 L9,19 C8.44771525,19 8,18.5522847 8,18 L8,17 C8,16.4477153 8.44771525,16 9,16 Z M14,12 L15,12 C15.5522847,12 16,12.4477153 16,13 L16,14 C16,14.5522847 15.5522847,15 15,15 L14,15 C13.4477153,15 13,14.5522847 13,14 L13,13 C13,12.4477153 13.4477153,12 14,12 Z" id="Shape" fill="#18456D"></path>
    </g>
</svg>