<?xml version="1.0" encoding="UTF-8"?>
<svg width="24px" height="24px" viewBox="0 0 24 24" version="1.1" xmlns="http://www.w3.org/2000/svg" xmlns:xlink="http://www.w3.org/1999/xlink">
    <title>Icon/Project</title>
    <g id="Icon/Project" stroke="none" stroke-width="1" fill="none" fill-rule="evenodd">
        <path d="M20,20 L4,20 L4,8 L20,8 L20,20 Z M10,5 L14,5 L14,6 L10,6 L10,5 Z M20,6 C20,5.44771525 19.5561352,5 19,5 L19,5 C18.4477153,5 18,5.45318604 18,6 L18,6 L16,6 L16,4 C16,3.448 15.552,3 15,3 L9,3 C8.448,3 8,3.448 8,4 L8,6 L6,6 L6,6 C6,5.44771525 5.55613518,5 5,5 L5,5 C4.44771525,5 4,5.45318604 4,6 L4,6 C2.897,6 2,6.897 2,8 L2,20 C2,21.103 2.897,22 4,22 L20,22 C21.103,22 22,21.103 22,20 L22,8 C22,6.897 21.103,6 20,6 L20,6 Z" id="Fill-532" fill="#18456D"></path>
    </g>
</svg>