<?xml version="1.0" encoding="UTF-8"?>
<svg width="24px" height="24px" viewBox="0 0 24 24" version="1.1" xmlns="http://www.w3.org/2000/svg" xmlns:xlink="http://www.w3.org/1999/xlink">
    <title>Icon/Projectleider</title>
    <g id="Icon/Projectleider" stroke="none" stroke-width="1" fill="none" fill-rule="evenodd">
        <path d="M19,2 C20.1,2 21,2.9 21,4 L21,4 L21,18 C21,19.1 20.1,20 19,20 L19,20 L15,20 L12.7071068,22.2928932 C12.3165825,22.6834175 11.6834175,22.6834175 11.2928932,22.2928932 L11.2928932,22.2928932 L9,20 L5,20 C3.89,20 3,19.1 3,18 L3,18 L3,4 C3,2.9 3.89,2 5,2 L5,2 Z M12,16 C9.32081537,16 7.09773569,16.7906141 5.90905432,18.0001598 L9.83,18 L12,20.17 L14.17,18 L18.0912729,18.0004783 C16.9027596,16.7908335 14.6795429,16 12,16 Z M19,4 L5,4 L5.00037611,16.127482 C6.64563878,14.7806339 9.15048263,14 12,14 C14.850485,14 17.3560297,14.7811765 19.0012305,16.1287911 L19,4 Z M12,5 C14.209139,5 16,6.790861 16,9 C16,11.209139 14.209139,13 12,13 C9.790861,13 8,11.209139 8,9 C8,6.790861 9.790861,5 12,5 Z M12,7 C10.8954305,7 10,7.8954305 10,9 C10,10.1045695 10.8954305,11 12,11 C13.1045695,11 14,10.1045695 14,9 C14,7.8954305 13.1045695,7 12,7 Z" id="Combined-Shape" fill="#18456D"></path>
    </g>
</svg>