<?xml version="1.0" encoding="UTF-8"?>
<svg width="24px" height="24px" viewBox="0 0 24 24" version="1.1" xmlns="http://www.w3.org/2000/svg" xmlns:xlink="http://www.w3.org/1999/xlink">
    <title>Icon/Search</title>
    <g id="Icon/Search" stroke="none" stroke-width="1" fill="none" fill-rule="evenodd">
        <path d="M10,16 C8.398,16 6.891,15.376 5.758,14.243 C4.624,13.11 4,11.603 4,10 C4,8.398 4.624,6.891 5.758,5.758 C6.891,4.624 8.398,4 10,4 C11.602,4 13.109,4.624 14.242,5.758 C15.376,6.891 16,8.398 16,10 C16,11.603 15.376,13.11 14.242,14.243 C13.109,15.376 11.602,16 10,16 L10,16 Z M21,21 C21.3904653,20.6095347 21.3858534,19.9717939 21.0020902,19.5879594 L16.315,14.9 C17.403,13.504 18,11.799 18,10 C18,7.863 17.167,5.854 15.656,4.344 C14.146,2.832 12.137,2 10,2 C7.863,2 5.854,2.832 4.344,4.344 C2.833,5.854 2,7.863 2,10 C2,12.137 2.833,14.146 4.344,15.656 C5.854,17.168 7.863,18 10,18 C11.799,18 13.504,17.404 14.9,16.314 L19.5879594,21.0019594 C19.9773426,21.3913426 20.6068124,21.3931876 21,21 L21,21 Z" id="Fill-1648" fill="#18456D"></path>
    </g>
</svg>