<?xml version="1.0" encoding="UTF-8"?>
<svg width="24px" height="24px" viewBox="0 0 24 24" version="1.1" xmlns="http://www.w3.org/2000/svg" xmlns:xlink="http://www.w3.org/1999/xlink">
    <title>Icon/Smoelenboek</title>
    <g id="Icon/Smoelenboek" stroke="none" stroke-width="1" fill="none" fill-rule="evenodd">
        <path d="M12,13 C16.418278,13 20,16.581722 20,21 C17.3333333,21.8497383 14.6666667,22.2746075 12,22.2746075 C9.33333333,22.2746075 6.66666667,21.8497383 4,21 C4,16.581722 7.581722,13 12,13 Z M12,15 C9.18907366,15 6.82961493,16.9329627 6.17833469,19.5421771 C8.12354995,20.0310153 10.0630394,20.2746075 12,20.2746075 C13.9369606,20.2746075 15.87645,20.0310153 17.8216653,19.5421771 C17.1703851,16.9329627 14.8109263,15 12,15 Z M12,2 C14.7614237,2 17,4.23857625 17,7 C17,9.76142375 14.7614237,12 12,12 C9.23857625,12 7,9.76142375 7,7 C7,4.23857625 9.23857625,2 12,2 Z M12,4 C10.3431458,4 9,5.34314575 9,7 C9,8.65685425 10.3431458,10 12,10 C13.6568542,10 15,8.65685425 15,7 C15,5.34314575 13.6568542,4 12,4 Z" id="Combined-Shape" fill="#18456D"></path>
    </g>
</svg>