<?xml version="1.0" encoding="UTF-8"?>
<svg width="24px" height="24px" viewBox="0 0 24 24" version="1.1" xmlns="http://www.w3.org/2000/svg" xmlns:xlink="http://www.w3.org/1999/xlink">
    <title>Icon/Smoelenboek v2</title>
    <g id="Icon/Smoelenboek-v2" stroke="none" stroke-width="1" fill="none" fill-rule="evenodd">
        <path d="M12,3 C13.302,3 14.401,3.838 14.815,5 L14.815,5 L20,5 C21.103,5 22,5.896 22,7 L22,7 L22,19 C22,20.103 21.103,21 20,21 L20,21 L4,21 C2.897,21 2,20.103 2,19 L2,19 L2,7 C2,5.896 2.897,5 4,5 L4,5 L9.185,5 C9.599,3.838 10.698,3 12,3 Z M9.185,7 L4,7 L4,19 L20.001,19 L20,7 L14.815,7 C14.401,8.162 13.302,9 12,9 C10.698,9 9.599,8.162 9.185,7 L9.185,7 Z M8,14 C9.841,14 11,15.159 11,17 L5,17 C5,15.159 6.159,14 8,14 Z M18.009222,15 C18.5564136,15 19,15.4438648 19,16 C19,16.5522847 18.5490248,17 18.009222,17 L13.990778,17 C13.4826715,17 13.0638981,16.6172798 13.0066657,16.1173326 L13,16 C13,15.4477153 13.4509752,15 13.990778,15 L18.009222,15 Z M8,9 C9.104,9 10,9.896 10,11 C10,12.104 9.104,13 8,13 C6.896,13 6,12.104 6,11 C6,9.896 6.896,9 8,9 Z M18.009222,11 C18.5564136,11 19,11.4438648 19,12 C19,12.5522847 18.5490248,13 18.009222,13 L13.990778,13 C13.4826715,13 13.0638981,12.6172798 13.0066657,12.1173326 L13,12 C13,11.4477153 13.4509752,11 13.990778,11 L18.009222,11 Z M12,5 C11.449,5 11,5.449 11,6 C11,6.551 11.449,7 12,7 C12.551,7 13,6.551 13,6 C13,5.449 12.551,5 12,5 Z" id="Combined-Shape" fill="#18456D"></path>
    </g>
</svg>