<?xml version="1.0" encoding="UTF-8"?>
<svg width="24px" height="24px" viewBox="0 0 24 24" version="1.1" xmlns="http://www.w3.org/2000/svg" xmlns:xlink="http://www.w3.org/1999/xlink">
    <title>Icon/Tester</title>
    <g id="Icon/Tester" stroke="none" stroke-width="1" fill="none" fill-rule="evenodd">
        <path d="M12,3 C13.9137309,3 15.5135762,4.34393509 15.907216,6.13950805 C16.8033306,6.42346638 17.517268,7.11688267 17.8293665,8.0000952 L18.5857864,8 L21,5.58578644 L22.4142136,7 L19.4142136,10 L17.9997864,10 L17.9997864,12 L21,12 L21,14 L17.9997864,14 L17.9997864,15.999 L19.4142136,16 L22.4142136,19 L21,20.4142136 L18.5857864,18 L17.5734914,18.000493 C17.3596668,18.3574344 17.0710286,18.6709325 16.7203881,18.9163811 L12,22.2206559 L7.27961185,18.9163811 C6.92897137,18.6709325 6.64033315,18.3574343 6.42650861,18.0004929 L5.41421356,18 L3,20.4142136 L1.58578644,19 L4.58578644,16 L5.99978644,15.999 L5.99978644,10 L4.58578644,10 L1.58578644,7 L3,5.58578644 L5.41421356,8 L6.17063349,8.0000952 C6.482732,7.11688267 7.1966694,6.42346638 8.09278398,6.13950805 C8.48642374,4.34393509 10.0862691,3 12,3 Z M12,5 C10.8954577,5 10.0000393,5.89538842 10,6.99992646 L9.9999644,7.99989086 L9,7.99989086 C8.44771525,7.99989086 8,8.44760611 8,8.99989086 L8,16.458686 C8,16.7849997 8.15921083,17.0907891 8.42653727,17.2779177 L12,19.7793441 L15.5734627,17.2779177 C15.8407892,17.090789 16,16.7849997 16,16.458686 L16,8.99989086 C16,8.44760611 15.5522848,7.99989086 15,7.99989086 L14.0000356,7.99989086 L14,6.99992647 C13.9999607,5.89538842 13.1045423,5 12,5 Z" id="Combined-Shape" fill="#00327F"></path>
    </g>
</svg>