<?xml version="1.0" encoding="UTF-8"?>
<svg width="24px" height="24px" viewBox="0 0 24 24" version="1.1" xmlns="http://www.w3.org/2000/svg" xmlns:xlink="http://www.w3.org/1999/xlink">
    <title>Icon/Tijd</title>
    <g id="Icon/Tijd" stroke="none" stroke-width="1" fill="none" fill-rule="evenodd">
        <path d="M12,3 C16.962,3 20.999,7.038 20.999,12 C20.999,16.962 16.962,21 12,21 C7.038,21 3,16.962 3,12 C3,7.038 7.038,3 12,3 Z M12,5 C8.14,5 5,8.14 5,12 C5,15.86 8.14,19 12,19 C15.859,19 18.999,15.86 18.999,12 C18.999,8.14 15.859,5 12,5 Z M12,7 L12.1173326,7.0066667 C12.6172798,7.06390777 13,7.48274471 13,7.99092822 L13,7.99092822 L13,11.465 L14.7183974,12.6103741 C15.178001,12.9167165 15.306518,13.5404991 15,14 L15,14 L14.9292699,14.0938798 C14.6036266,14.4777162 14.0387351,14.5611174 13.6110616,14.2759604 L13.6110616,14.2759604 L11.8339384,13.0910396 C11.3686753,12.7808192 11,12.0862341 11,11.5326533 L11,11.5326533 L11,8.00234674 C11,7.45295228 11.4477153,7 12,7 L12,7 Z" id="Combined-Shape" fill="#18456D"></path>
    </g>
</svg>