<?xml version="1.0" encoding="UTF-8"?>
<svg width="24px" height="24px" viewBox="0 0 24 24" version="1.1" xmlns="http://www.w3.org/2000/svg" xmlns:xlink="http://www.w3.org/1999/xlink">
    <title>Icon/Toolboxen</title>
    <g id="Icon/Toolboxen" stroke="none" stroke-width="1" fill="none" fill-rule="evenodd">
        <path d="M3.54792221,11.1790284 L20.4650251,11.1790284 C22.1592994,11.1790284 23,10.3319587 23,8.63787264 L23,5.02813172 C23,3.34704303 22.1592994,2.5 20.4650251,2.5 L3.54792221,2.5 C1.84069529,2.5 1,3.34704303 1,5.02813172 L1,8.63787264 C1,10.3319587 1.84069529,11.1790284 3.54792221,11.1790284 Z M3.67723632,9.41976878 C3.08231728,9.41976878 2.74602645,9.08093022 2.74602645,8.44237859 L2.74602645,5.23662313 C2.74602645,4.58504746 3.08231728,4.25925963 3.67723632,4.25925963 L20.3098058,4.25925963 C20.9176774,4.25925963 21.2668944,4.58504746 21.2668944,5.23662313 L21.2668944,8.44237859 C21.2668944,9.08093022 20.9176774,9.41976878 20.3098058,9.41976878 L3.67723632,9.41976878 Z M3.54792221,21.5 L20.4650251,21.5 C22.1592994,21.5 23,20.6659797 23,18.9588482 L23,15.3491233 C23,13.6680346 22.1592994,12.8340156 20.4650251,12.8340156 L3.54792221,12.8340156 C1.84069529,12.8340156 1,13.6680346 1,15.3491233 L1,18.9588482 C1,20.6659797 1.84069529,21.5 3.54792221,21.5 Z M3.67723632,19.7407417 C3.08231728,19.7407417 2.74602645,19.4019218 2.74602645,18.7764076 L2.74602645,15.5576147 C2.74602645,14.9060391 3.08231728,14.5802512 3.67723632,14.5802512 L20.3098058,14.5802512 C20.9176774,14.5802512 21.2668944,14.9060391 21.2668944,15.5576147 L21.2668944,18.7764076 C21.2668944,19.4019218 20.9176774,19.7407417 20.3098058,19.7407417 L3.67723632,19.7407417 Z" id="Shape" fill="#000000" fill-rule="nonzero"></path>
    </g>
</svg>