<?xml version="1.0" encoding="UTF-8"?>
<svg width="24px" height="24px" viewBox="0 0 24 24" version="1.1" xmlns="http://www.w3.org/2000/svg" xmlns:xlink="http://www.w3.org/1999/xlink">
    <title>Icon/Toolbox</title>
    <g id="Icon/Toolbox" stroke="none" stroke-width="1" fill="none" fill-rule="evenodd">
        <path d="M12,0 C18.627417,0 24,5.372583 24,12 C24,18.627417 18.627417,24 12,24 C5.372583,24 0,18.627417 0,12 C0,5.372583 5.372583,0 12,0 Z M18,13 L6,13 L6.00023987,20.0009125 C7.42092562,21.0679646 9.13505616,21.7654428 10.9998991,21.9506147 L11,19.632 C9.836,19.22 9,18.121 9,16.816 C9,15.511 9.836,14.413 11,14 L11,16.816 L13,16.816 L13,14 C14.162,14.414 15,15.512 15,16.816 C15,18.12 14.162,19.218 13,19.632 L13.0010997,21.9505155 C14.8659966,21.76515 16.5801381,21.0674444 18.0007673,20.000156 L18,13 Z M12,2 C6.4771525,2 2,6.4771525 2,12 C2,14.2520086 2.74441627,16.3301494 4.00060068,18.0017743 L4,12 C4,11.4477153 4.44771525,11 5,11 L8,11 L8,8 C8,7.44771525 8.44771525,7 9,7 L15,7 C15.5522847,7 16,7.44771525 16,8 L16,11 L19,11 C19.5522847,11 20,11.4477153 20,12 L20.0009125,17.9997601 C21.2561815,16.3284802 22,14.2511041 22,12 C22,6.4771525 17.5228475,2 12,2 Z M14,9 L10,9 L10,11 L14,11 L14,9 Z" id="Combined-Shape" fill="#18456D"></path>
    </g>
</svg>