<?xml version="1.0" encoding="UTF-8"?>
<svg width="24px" height="24px" viewBox="0 0 24 24" version="1.1" xmlns="http://www.w3.org/2000/svg" xmlns:xlink="http://www.w3.org/1999/xlink">
    <title>Icon/Uren v2</title>
    <g id="Icon/Uren-v2" stroke="none" stroke-width="1" fill="none" fill-rule="evenodd">
        <path d="M12,0 C18.627417,0 24,5.372583 24,12 C24,18.627417 18.627417,24 12,24 C5.372583,24 0,18.627417 0,12 C0,5.372583 5.372583,0 12,0 Z M12.0030299,10 C8.13302986,10 5.00302986,13.13 5.00302986,17 C5.00302986,17.9194027 5.17968813,18.7970396 5.50095804,19.600864 C7.24888932,21.0964439 9.51892624,22 12,22 C14.4853287,22 16.758896,21.0933421 18.5079927,19.5927358 C18.8275513,18.7911686 19.0030299,17.9163278 19.0030299,17 C19.0030299,13.13 15.8730299,10 12.0030299,10 Z M12.0030299,12 C12.5530299,12 13.0030299,12.45 13.0030299,13 L13.0030299,13 L13.0030299,17 C13.0030299,17.55 12.5530299,18 12.0030299,18 C11.4530299,18 11.0030299,17.55 11.0030299,17 L11.0030299,17 L11.0030299,13 C11.0030299,12.45 11.4530299,12 12.0030299,12 Z M12,2 C6.4771525,2 2,6.4771525 2,12 C2,13.5802698 2.36655426,15.0749263 3.01927627,16.4035829 C3.32662015,11.765285 7.32252637,8 12.0030299,8 C14.1230299,8 16.0730299,8.74 17.6230299,9.98 L17.6230299,9.98 L18.3730299,9.23 C18.7630299,8.85 19.3830299,8.84 19.7730299,9.23 L19.7730299,9.23 L19.7830299,9.24 C20.1730299,9.63 20.1630299,10.26 19.7830299,10.64 L19.7830299,10.64 L19.0330299,11.39 C20.1461387,12.7836485 20.857955,14.5130725 20.9831948,16.4003994 C21.6339952,15.0726848 22,13.5790849 22,12 C22,6.4771525 17.5228475,2 12,2 Z M14.0030299,5 C14.5530299,5 15.0030299,5.45 15.0030299,6 C15.0030299,6.55 14.5530299,7 14.0030299,7 L14.0030299,7 L10.0030299,7 C9.45302986,7 9.00302986,6.55 9.00302986,6 C9.00302986,5.45 9.45302986,5 10.0030299,5 L10.0030299,5 Z" id="Combined-Shape" fill="#18456D"></path>
    </g>
</svg>