<?xml version="1.0" encoding="UTF-8"?>
<svg width="240px" height="86px" viewBox="0 0 240 86" version="1.1" xmlns="http://www.w3.org/2000/svg" xmlns:xlink="http://www.w3.org/1999/xlink">
    <g id="Store-images" stroke="none" stroke-width="1" fill="none" fill-rule="evenodd">
        <g id="Group-6" transform="translate(-68.000000, -742.000000)" fill="#020202">
            <g id="foreground" transform="translate(68.000000, 742.000000)">
                <g id="Group" transform="translate(0.761905, 0.000000)">
                    <polygon id="Fill-1" points="-8.48591039e-14 -3.85723199e-14 -8.48591039e-14 84.8725432 16.6748254 84.8725432 16.6748254 66.9254778 22.2500638 61.3474122 36.9967389 84.8725432 56.1001291 84.8725432 32.9651517 49.9170427 54.3896731 25.1253262 34.4013693 25.1253262 19.4369998 42.8490428 16.6748254 46.4395868 16.6748254 -3.85723199e-14"></polygon>
                    <path d="M93.7355324,24.2135542 C94.691126,24.3436054 95.4629516,24.4991014 96.0538364,24.6828694 L95.8333148,40.8063908 C93.6959516,40.512362 91.7282204,40.3653476 89.9244668,40.3653476 C83.9619021,40.3653476 80.0773293,42.335906 78.2735757,46.2741956 L78.2735757,84.8711296 L61.5987503,84.8711296 L61.5987503,25.1239126 L77.2812286,25.1239126 L77.7759886,32.3587173 C79.2489597,29.6728773 81.1177389,27.6090213 83.3823261,26.1728038 C85.6469133,24.7394134 88.1942205,24.0213046 91.029902,24.0213046 C91.8752348,24.0213046 92.7771116,24.0863302 93.7355324,24.2135542" id="Fill-2"></path>
                    <path d="M117.534902,49.2551952 L138.795446,49.2551952 C138.241314,45.5741809 137.073681,42.6847825 135.28689,40.5870001 C133.5001,38.4863905 131.0263,37.4374993 127.859836,37.4374993 C124.472851,37.4374993 121.925543,38.3761297 120.21226,40.2533905 C118.501804,42.1306513 117.608409,44.6920945 117.534902,47.9292384 L117.534902,49.2551952 Z M101.190859,53.3404992 C101.190859,47.3779344 102.21996,42.1956769 104.283816,37.7965537 C106.344844,33.4002578 109.361467,30.0019634 113.339337,27.6101522 C117.31438,25.218341 122.117793,24.0196083 127.749575,24.0196083 C133.528372,24.0196083 138.53817,25.3370834 142.770489,27.9692066 C147.002807,30.6013298 150.242778,34.2540722 152.487575,38.9302609 C154.732372,43.6036225 155.857597,48.9244128 155.857597,54.8869776 L155.857597,56.9847599 C155.857597,62.3253407 154.650383,67.2022607 152.238781,71.618347 C149.830007,76.0372606 146.366687,79.5345069 141.86013,82.1100861 C137.350746,84.6884925 132.038438,85.9748685 125.928859,85.9748685 C120.517598,85.9748685 115.796174,84.9457677 111.764587,82.8847389 C107.732999,80.8237101 104.668315,78.2820573 102.570532,75.2626078 L110.577163,66.0402815 C112.307409,68.2143982 114.39671,69.8428654 116.845065,70.9285102 C119.29342,72.014155 121.950988,72.5569774 124.823423,72.5569774 C128.688206,72.5569774 131.85467,71.462851 134.319988,69.271771 C136.788134,67.0835183 138.331785,64.1290943 138.959423,60.4084991 L101.190859,60.4084991 L101.190859,53.3404992 Z" id="Fill-4"></path>
                    <polygon id="Fill-6" points="238.345397 25.1247607 223.437572 84.8719778 213.166354 84.8719778 209.46555 84.8719778 198.476223 48.2060213 187.543441 84.8719778 178.764985 84.8719778 173.574246 84.8719778 158.663593 25.1247607 174.676854 25.1247607 182.02192 62.3420212 192.513659 25.1247607 203.061942 25.1247607 204.441615 25.1247607 214.933354 62.1752164 222.332137 25.1247607"></polygon>
                </g>
            </g>
        </g>
    </g>
</svg>