<svg height="12" viewBox="0 0 132 14" xmlns="http://www.w3.org/2000/svg" xmlns:xlink="http://www.w3.org/1999/xlink"><title>Logo</title><defs><path id="a" d="M0 13.92h131.945V.044H0z"/></defs><g fill="none" fill-rule="evenodd"><path fill="#FFF" d="M34.297 9.628L31.691.601h-2.822l4.053 12.989h2.68L39.634.6H36.92zM9.743 1.006A.999.999 0 0 1 10.54.6h2.406v12.988h-2.74V5.025L7.804 8.223c-.676.9-1.983.901-2.66 0l-2.404-3.2v8.566H0V.601h2.404a1 1 0 0 1 .8.406l3.27 4.352 3.269-4.353zM21.447.294c-3.604 0-6.526 3.048-6.526 6.808s2.922 6.81 6.526 6.81c3.605 0 6.527-3.05 6.527-6.81S25.052.294 21.447.294m0 2.853c2.091 0 3.792 1.774 3.792 3.955 0 2.182-1.7 3.956-3.792 3.956-2.09 0-3.791-1.774-3.791-3.956 0-2.18 1.7-3.955 3.791-3.955m54.319-2.13L72.498 5.37l-3.27-4.353a1.003 1.003 0 0 0-.8-.406h-2.404V13.6h2.74V5.034l2.404 3.2a1.647 1.647 0 0 0 2.66 0l2.401-3.198V13.6h2.74V.612h-2.405a.998.998 0 0 0-.798.405M87.47.302c-3.604 0-6.526 3.048-6.526 6.809 0 3.76 2.922 6.808 6.527 6.808s6.527-3.048 6.527-6.808S91.076.3 87.471.3m0 2.854c2.09 0 3.792 1.774 3.792 3.956 0 2.18-1.701 3.955-3.792 3.955-2.09 0-3.792-1.775-3.792-3.955 0-2.182 1.701-3.956 3.792-3.956m13.488 7.97h-2.293V8.248h2.093c1.358 0 1.912.413 1.912 1.428 0 .988-.544 1.448-1.712 1.448zm-2.293-8.038h1.948c1.171 0 1.694.423 1.694 1.372 0 .935-.556 1.352-1.803 1.352h-1.839V3.086zm4.924 3.835c.913-.566 1.376-1.502 1.376-2.786 0-1.157-.215-2-1.316-2.884-.543-.425-1.558-.64-3.018-.64h-4.66v12.988h5.096c1.49 0 2.478-.216 3.02-.661.53-.436.874-.874 1.048-1.342.174-.463.266-1.022.266-1.616 0-1.485-.625-2.536-1.812-3.06z"/><mask id="b" fill="#fff"><use xlink:href="#a"/></mask><path fill="#FFF" mask="url(#b)" d="M107.585 13.6h2.695V.61h-2.695zM115.984.606h-2.694V13.6h8.286v-2.476h-5.592zm15.961.003h-8.667V13.6h8.667v-2.476h-5.973V8.266h4.902V5.791h-3.924l-.977 1.302V3.084h5.972zM50.23.6h-8.668v12.992h8.667v-2.476h-5.972V8.26h4.901V5.783h-3.924l-.977 1.302V3.076h5.972zm2.099 10.177l.417 2.153a.821.821 0 0 0 .302.481.842.842 0 0 0 .481.188h3.241l2.131-2.859h-3.064l4.278-5.704V13.6h2.74V.61H60.45a.998.998 0 0 0-.798.406l-7.323 9.76z"/></g></svg>